<?xml version="1.0" encoding="utf-8"?>
<!-- Generator: Adobe Illustrator 26.5.0, SVG Export Plug-In . SVG Version: 6.00 Build 0)  -->
<svg version="1.1" id="Layer_1" xmlns="http://www.w3.org/2000/svg" xmlns:xlink="http://www.w3.org/1999/xlink" x="0px" y="0px"
	 viewBox="0 0 144 63" style="enable-background:new 0 0 144 63;" xml:space="preserve">
<style type="text/css">
	.st0{fill:#FF4785;}
	.st1{filter:url(#Adobe_OpacityMaskFilter);}
	.st2{fill:#FFFFFF;}
	.st3{mask:url(#mask-2_00000038377729220421495060000015837114003397295260_);fill:#FFFFFF;}
</style>
<g>
	<g>
		<path d="M53.1,28.6c-1.1,0-2.1-0.1-3.1-0.4c-1-0.3-1.8-0.6-2.4-1.1l0.9-2.4c0.6,0.4,1.3,0.8,2.1,1s1.6,0.4,2.5,0.4
			c0.9,0,1.6-0.1,2-0.4c0.4-0.3,0.6-0.7,0.6-1.1c0-0.4-0.1-0.7-0.4-0.9s-0.8-0.4-1.5-0.6l-2.2-0.5c-2.5-0.5-3.7-1.8-3.7-3.8
			c0-0.9,0.2-1.6,0.7-2.3c0.5-0.7,1.1-1.2,2-1.5c0.8-0.4,1.8-0.5,2.9-0.5c1,0,1.8,0.1,2.7,0.4c0.8,0.3,1.5,0.7,2.1,1.2l-0.9,2.2
			c-1.1-0.8-2.4-1.3-3.9-1.3c-0.8,0-1.5,0.2-1.9,0.5c-0.5,0.3-0.7,0.7-0.7,1.2c0,0.4,0.1,0.7,0.4,0.9s0.8,0.4,1.4,0.6l2.2,0.5
			c2.5,0.5,3.8,1.8,3.8,3.7c0,0.9-0.2,1.6-0.7,2.3c-0.5,0.6-1.1,1.1-2,1.5S54.2,28.6,53.1,28.6z"/>
		<path d="M65,28.6c-2.7,0-4.1-1.3-4.1-3.9V21h-1.8v-2.2H61V16h3v2.8h2.8V21h-2.8v3.6c0,0.5,0.1,1,0.4,1.2c0.3,0.3,0.7,0.4,1.2,0.4
			c0.2,0,0.3,0,0.5-0.1s0.4-0.1,0.6-0.2l0.4,2.2c-0.3,0.1-0.6,0.3-1,0.3C65.8,28.6,65.4,28.6,65,28.6z"/>
		<path d="M72.7,28.6c-1,0-1.9-0.2-2.7-0.6s-1.4-1-1.8-1.7c-0.4-0.8-0.6-1.6-0.6-2.7c0-1,0.2-1.9,0.6-2.7c0.4-0.8,1-1.3,1.8-1.7
			c0.8-0.4,1.7-0.6,2.7-0.6s1.9,0.2,2.7,0.6c0.8,0.4,1.4,1,1.8,1.7c0.4,0.8,0.6,1.6,0.6,2.7c0,1-0.2,1.9-0.6,2.7
			c-0.4,0.8-1,1.3-1.8,1.7C74.7,28.4,73.8,28.6,72.7,28.6z M72.7,26.4c0.6,0,1.1-0.2,1.5-0.7s0.6-1.2,0.6-2.1c0-1-0.2-1.7-0.6-2.1
			c-0.4-0.5-0.9-0.7-1.5-0.7c-0.6,0-1.1,0.2-1.5,0.7c-0.4,0.5-0.6,1.2-0.6,2.1c0,1,0.2,1.7,0.6,2.1S72.1,26.4,72.7,26.4z"/>
		<path d="M79.7,28.4v-9.6h2.9v1.7c0.5-1.1,1.4-1.7,2.9-1.9l0.9-0.1l0.2,2.5l-1.7,0.2c-1.5,0.1-2.2,0.9-2.2,2.2v5H79.7z"/>
		<path d="M89.1,32l1.8-4.1l-4-9.1h3.1l2.4,6.1l2.5-6.1h2.9L92.1,32H89.1z"/>
		<path d="M104.7,28.6c-0.7,0-1.3-0.2-1.8-0.5c-0.5-0.3-0.9-0.7-1.2-1.2v1.4h-2.9V14.6h3v5.5c0.3-0.5,0.7-0.8,1.2-1.1
			c0.5-0.3,1.1-0.4,1.8-0.4c0.8,0,1.6,0.2,2.2,0.6c0.6,0.4,1.1,1,1.5,1.7s0.5,1.6,0.5,2.7c0,1-0.2,1.9-0.5,2.7
			c-0.4,0.8-0.8,1.3-1.5,1.7C106.2,28.4,105.5,28.6,104.7,28.6z M103.8,26.4c0.6,0,1.1-0.2,1.5-0.7c0.4-0.5,0.6-1.2,0.6-2.1
			c0-1-0.2-1.7-0.6-2.1c-0.4-0.5-0.9-0.7-1.5-0.7c-0.6,0-1.2,0.2-1.5,0.7c-0.4,0.5-0.6,1.2-0.6,2.1c0,1,0.2,1.7,0.6,2.1
			S103.2,26.4,103.8,26.4z"/>
		<path d="M115.3,28.6c-1,0-1.9-0.2-2.7-0.6s-1.4-1-1.8-1.7c-0.4-0.8-0.6-1.6-0.6-2.7c0-1,0.2-1.9,0.6-2.7c0.4-0.8,1-1.3,1.8-1.7
			c0.8-0.4,1.7-0.6,2.7-0.6s1.9,0.2,2.7,0.6c0.8,0.4,1.4,1,1.8,1.7c0.4,0.8,0.6,1.6,0.6,2.7c0,1-0.2,1.9-0.6,2.7
			c-0.4,0.8-1,1.3-1.8,1.7C117.2,28.4,116.3,28.6,115.3,28.6z M115.3,26.4c0.6,0,1.1-0.2,1.5-0.7s0.6-1.2,0.6-2.1
			c0-1-0.2-1.7-0.6-2.1c-0.4-0.5-0.9-0.7-1.5-0.7c-0.6,0-1.1,0.2-1.5,0.7c-0.4,0.5-0.6,1.2-0.6,2.1c0,1,0.2,1.7,0.6,2.1
			S114.7,26.4,115.3,26.4z"/>
		<path d="M126.8,28.6c-1,0-1.9-0.2-2.7-0.6s-1.4-1-1.8-1.7c-0.4-0.8-0.6-1.6-0.6-2.7c0-1,0.2-1.9,0.6-2.7c0.4-0.8,1-1.3,1.8-1.7
			c0.8-0.4,1.7-0.6,2.7-0.6s1.9,0.2,2.7,0.6c0.8,0.4,1.4,1,1.8,1.7c0.4,0.8,0.6,1.6,0.6,2.7c0,1-0.2,1.9-0.6,2.7
			c-0.4,0.8-1,1.3-1.8,1.7C128.8,28.4,127.9,28.6,126.8,28.6z M126.8,26.4c0.6,0,1.1-0.2,1.5-0.7s0.6-1.2,0.6-2.1
			c0-1-0.2-1.7-0.6-2.1c-0.4-0.5-0.9-0.7-1.5-0.7c-0.6,0-1.1,0.2-1.5,0.7c-0.4,0.5-0.6,1.2-0.6,2.1c0,1,0.2,1.7,0.6,2.1
			S126.2,26.4,126.8,26.4z"/>
		<path d="M133.8,28.4V14.6h3v8.2h0l3.5-4h3.5l-4.1,4.6l4.3,5h-3.6l-3.7-4.2h0v4.2H133.8z"/>
		<path d="M48.1,46.9V33.1h5.4c2.3,0,4.2,0.6,5.5,1.8c1.3,1.2,1.9,2.9,1.9,5.1c0,2.2-0.6,3.9-1.9,5.1c-1.3,1.2-3.1,1.8-5.5,1.8H48.1
			z M51.2,44.4h2.2c2.9,0,4.4-1.5,4.4-4.4c0-2.9-1.5-4.4-4.4-4.4h-2.2V44.4z"/>
		<path d="M63,46.9v-9.6h2.9V39c0.5-1.1,1.4-1.7,2.9-1.9l0.9-0.1l0.2,2.5l-1.7,0.2c-1.5,0.1-2.2,0.9-2.2,2.2v5H63z"/>
		<path d="M74.7,47.1c-1.2,0-2.1-0.3-2.7-1s-0.9-1.7-0.9-3.1v-5.8h3v5.8c0,1.1,0.5,1.7,1.5,1.7c0.6,0,1-0.2,1.4-0.6
			c0.4-0.4,0.5-0.9,0.5-1.6v-5.4h3v9.6h-2.9v-1.3C76.9,46.6,75.9,47.1,74.7,47.1z"/>
		<path d="M82.7,50.5V37.3h2.9v1.4c0.3-0.5,0.7-0.9,1.2-1.2s1.2-0.4,1.8-0.4c0.8,0,1.6,0.2,2.2,0.6c0.6,0.4,1.1,1,1.5,1.7
			s0.5,1.6,0.5,2.7s-0.2,1.9-0.5,2.7s-0.8,1.3-1.5,1.7c-0.6,0.4-1.4,0.6-2.2,0.6c-0.6,0-1.2-0.1-1.8-0.4c-0.5-0.3-0.9-0.6-1.2-1.1
			v4.8H82.7z M87.7,44.9c0.6,0,1.1-0.2,1.5-0.7c0.4-0.5,0.6-1.2,0.6-2.1c0-1-0.2-1.7-0.6-2.1c-0.4-0.5-0.9-0.7-1.5-0.7
			c-0.6,0-1.2,0.2-1.5,0.7c-0.4,0.5-0.6,1.2-0.6,2.1c0,1,0.2,1.7,0.6,2.1S87.1,44.9,87.7,44.9z"/>
		<path d="M97.9,47.1c-0.7,0-1.4-0.1-1.9-0.4c-0.5-0.3-1-0.6-1.3-1.1c-0.3-0.5-0.5-1-0.5-1.6c0-0.7,0.2-1.2,0.5-1.7s1-0.7,1.8-0.9
			c0.8-0.2,1.9-0.3,3.3-0.3h0.7v-0.3c0-0.6-0.1-1-0.4-1.2c-0.3-0.2-0.7-0.4-1.3-0.4c-0.5,0-1.1,0.1-1.7,0.2
			c-0.6,0.2-1.2,0.4-1.7,0.7l-0.8-2c0.3-0.2,0.8-0.4,1.2-0.6c0.5-0.2,1-0.3,1.5-0.4s1-0.1,1.5-0.1c1.5,0,2.6,0.3,3.3,1
			c0.7,0.7,1.1,1.7,1.1,3.1v5.7h-2.8v-1.4c-0.2,0.5-0.5,0.9-1,1.2C99.1,47,98.5,47.1,97.9,47.1z M98.5,45.2c0.5,0,1-0.2,1.4-0.6
			c0.4-0.4,0.6-0.9,0.6-1.5v-0.4h-0.7c-1,0-1.7,0.1-2.1,0.3c-0.4,0.2-0.6,0.5-0.6,0.9c0,0.4,0.1,0.7,0.4,0.9
			C97.7,45,98,45.2,98.5,45.2z"/>
		<path d="M109.1,47.1c-1.2,0-2.1-0.3-2.7-1c-0.6-0.6-0.9-1.6-0.9-2.9V33.1h3v10c0,1,0.5,1.6,1.4,1.6c0.1,0,0.3,0,0.4,0
			c0.1,0,0.3,0,0.4-0.1l0,2.3C110.2,47.1,109.6,47.1,109.1,47.1z"/>
	</g>
	<g>
		<g>
			<path class="st0" d="M19.7,0C19.8,0,19.8,0,19.7,0c0.1,0,0.1,0.1,0.1,0.1c0.4,1.3,0.9,2.4,1.7,3.5c0.9,1.3,1.9,2.6,3,3.8
				c0.6,0.7,1.2,1.3,1.8,1.9c1.7,1.7,3.4,3.5,5.1,5.2c0.8,0.8,1.5,1.6,2.2,2.5c0.6,0.8,1.3,1.6,1.8,2.4c0.9,1.3,1.6,2.6,2.3,4
				c0.5,1.1,0.9,2.2,1.2,3.4c0.2,0.8,0.3,1.7,0.5,2.5c0.1,0.3,0.1,0.7,0.1,1.1c0,0.7,0.1,1.3,0.1,2c0,0.5-0.1,1-0.1,1.5
				c0,0.5-0.1,1-0.2,1.5c-0.1,0.7-0.3,1.3-0.4,2c-0.3,1.1-0.7,2.1-1.1,3.1c-0.5,1.1-1.1,2.2-1.8,3.2c-0.8,1.1-1.7,2.1-2.7,3
				c-0.9,0.9-1.9,1.6-3,2.3c-1,0.6-2.1,1.2-3.2,1.6c-1,0.4-2,0.7-3,0.9c-1,0.2-2,0.4-3.1,0.5c-0.6,0.1-1.3,0-2,0
				c-0.8,0-1.6-0.1-2.3-0.2c-1-0.1-2-0.4-3-0.7c-1.5-0.5-2.9-1.1-4.2-1.9c-1.1-0.7-2.2-1.4-3.1-2.3c-0.8-0.8-1.6-1.6-2.3-2.5
				c-0.9-1.2-1.7-2.4-2.3-3.7c-0.7-1.5-1.3-3.1-1.6-4.8C0.2,35,0.1,34.1,0,33.3c0-0.9,0-1.8,0-2.7c0-0.6,0.1-1.2,0.2-1.8
				c0.2-0.9,0.4-1.9,0.6-2.8c0.4-1.4,1-2.7,1.6-3.9c0.3-0.6,0.6-1.1,1-1.7C4.3,19.2,5.1,18.1,6,17c0.8-0.9,1.6-1.8,2.4-2.7
				c0.6-0.7,1.2-1.3,1.8-1.9c1.3-1.3,2.5-2.6,3.8-3.9C14.5,8,15,7.5,15.4,7c0.6-0.7,1.2-1.3,1.7-2c0.9-1.2,1.7-2.4,2.3-3.8
				C19.5,0.8,19.6,0.4,19.7,0z"/>
		</g>
		<defs>
			<filter id="Adobe_OpacityMaskFilter" filterUnits="userSpaceOnUse" x="10.3" y="16.2" width="19" height="28.9">
				<feColorMatrix  type="matrix" values="1 0 0 0 0  0 1 0 0 0  0 0 1 0 0  0 0 0 1 0"/>
			</filter>
		</defs>
		
			<mask maskUnits="userSpaceOnUse" x="10.3" y="16.2" width="19" height="28.9" id="mask-2_00000038377729220421495060000015837114003397295260_">
			<g class="st1">
				<path id="path-1_00000154421436493464336370000003941196171230624953_" class="st2" d="M2.4,50.2L1,12.9c0-1.2,0.9-2.3,2.1-2.4
					l31.7-2c1.3-0.1,2.3,0.9,2.4,2.1c0,0,0,0.1,0,0.1l0,40.7c0,1.3-1,2.3-2.3,2.3c0,0-0.1,0-0.1,0L4.5,52.4
					C3.3,52.3,2.4,51.4,2.4,50.2L2.4,50.2z"/>
			</g>
		</mask>
		<path class="st3" d="M22.2,25.6c0,0.9,6,0.5,6.8-0.2c0-6-3.2-9.2-9.1-9.2c-5.9,0-9.2,3.2-9.2,8c0,8.4,11.3,8.6,11.3,13.1
			c0,1.3-0.6,2-2,2c-1.8,0-2.5-0.9-2.4-4.1c0-0.7-6.9-0.9-7.1,0c-0.5,7.6,4.2,9.8,9.6,9.8c5.2,0,9.4-2.8,9.4-7.9
			c0-9-11.5-8.8-11.5-13.2c0-1.8,1.3-2,2.1-2C20.8,22,22.3,22.2,22.2,25.6z"/>
	</g>
</g>
</svg>
